<?xml version="1.0" encoding="utf-8"?>
<!-- Generator: Adobe Illustrator 21.1.0, SVG Export Plug-In . SVG Version: 6.00 Build 0)  -->
<svg version="1.1" id="Layer_1" xmlns="http://www.w3.org/2000/svg" xmlns:xlink="http://www.w3.org/1999/xlink" x="0px" y="0px"
	 viewBox="0 0 16 16" style="enable-background:new 0 0 16 16;" xml:space="preserve">
<style type="text/css">
	.st0{fill:#FFFFFF;}
	.st1{fill:#6C7079;}
</style>
<g transform="translate(0, 0)">
	<polygon class="st0" points="8,12.6 0.3,4.9 1.7,3.4 8,9.7 14.3,3.4 15.7,4.9 	"/>
</g>
<g transform="translate(16, 0)">
	<path class="st1" d="M15,3H8.4L5.7,0.3C5.5,0.1,5.3,0,5,0H1C0.4,0,0,0.4,0,1v14c0,0.6,0.4,1,1,1h14c0.6,0,1-0.4,1-1V4
		C16,3.4,15.6,3,15,3z"/>
</g>
<g transform="translate(32, 0)">
	<path class="st1" d="M15.8,7.4C15.6,7.2,15.3,7,15,7H4C3.6,7,3.2,7.2,3.1,7.6l-3,7C-0.1,15.2,0.1,16,1,16h11c0.4,0,0.8-0.2,0.9-0.6
		l3-7C16.1,8.1,16,7.7,15.8,7.4z"/>
	<path class="st1" d="M1.2,6.8C1.7,5.7,2.8,5,4,5h9V3c0-0.6-0.4-1-1-1H6.4L4.7,0.3C4.5,0.1,4.3,0,4,0H1C0.4,0,0,0.4,0,1v8.7L1.2,6.8
		z"/>
</g>
<g transform="translate(48, 0)">
	<path class="st1" d="M15,0H1C0.4,0,0,0.4,0,1v14c0,0.6,0.4,1,1,1h14c0.6,0,1-0.4,1-1V1C16,0.4,15.6,0,15,0z M6,4c0.6,0,1,0.4,1,1
		S6.6,6,6,6S5,5.6,5,5S5.4,4,6,4z M3,12l2-4l2,2l3-4l3,6H3z"/>
</g>
</svg>
